<svg width="16" height="16" viewBox="0 0 16 16" fill="none" xmlns="http://www.w3.org/2000/svg">
<path d="M14 8C14 11.3137 11.3137 14 8 14C4.68629 14 2 11.3137 2 8C2 4.68629 4.68629 2 8 2C11.3137 2 14 4.68629 14 8Z" fill="#EFC092"/>
<path d="M10 2C10 3.10457 9.10457 4 8 4C6.89543 4 6 3.10457 6 2C6 0.895431 6.89543 0 8 0C9.10457 0 10 0.895431 10 2Z" fill="#EFC092"/>
<path d="M10 14C10 15.1046 9.10457 16 8 16C6.89543 16 6 15.1046 6 14C6 12.8954 6.89543 12 8 12C9.10457 12 10 12.8954 10 14Z" fill="#EFC092"/>
<path d="M13.9999 10.0001C12.8954 10.0001 11.9999 9.10466 11.9999 8.00009C11.9999 6.89552 12.8954 6.00009 13.9999 6.00009C15.1045 6.00009 15.9999 6.89552 15.9999 8.00009C15.9999 9.10466 15.1045 10.0001 13.9999 10.0001Z" fill="#EFC092"/>
<path d="M1.99994 10.0001C0.895369 10.0001 -6.10352e-05 9.10466 -6.10352e-05 8.00009C-6.10352e-05 6.89552 0.895369 6.00009 1.99994 6.00009C3.10451 6.00009 3.99994 6.89552 3.99994 8.00009C3.99994 9.10466 3.10451 10.0001 1.99994 10.0001Z" fill="#EFC092"/>
<path d="M12.196 12.732C11.2395 12.1798 10.9117 10.9566 11.464 10C12.0163 9.04341 13.2395 8.71566 14.196 9.26794C15.1526 9.82023 15.4804 11.0434 14.9281 12C14.3758 12.9566 13.1526 13.2843 12.196 12.732Z" fill="#EFC092"/>
<path d="M1.80374 6.73205C0.847158 6.17976 0.519408 4.95658 1.07169 3.99999C1.62398 3.04341 2.84716 2.71566 3.80374 3.26794C4.76033 3.82023 5.08808 5.04341 4.53579 5.99999C3.98351 6.95658 2.76033 7.28433 1.80374 6.73205Z" fill="#EFC092"/>
<path d="M9.26789 14.1961C8.71561 13.2395 9.04336 12.0163 9.99994 11.464C10.9565 10.9117 12.1797 11.2395 12.732 12.1961C13.2843 13.1527 12.9565 14.3758 11.9999 14.9281C11.0434 15.4804 9.82018 15.1527 9.26789 14.1961Z" fill="#EFC092"/>
<path d="M3.26789 3.80377C2.71561 2.84719 3.04336 1.62401 3.99994 1.07172C4.95653 0.519437 6.17971 0.847188 6.73199 1.80377C7.28428 2.76036 6.95653 3.98354 5.99994 4.53582C5.04336 5.08811 3.82018 4.76036 3.26789 3.80377Z" fill="#EFC092"/>
<path d="M3.2678 12.1961C3.82009 11.2395 5.04327 10.9118 5.99985 11.4641C6.95644 12.0163 7.28419 13.2395 6.7319 14.1961C6.17962 15.1527 4.95644 15.4804 3.99985 14.9282C3.04327 14.3759 2.71552 13.1527 3.2678 12.1961Z" fill="#EFC092"/>
<path d="M9.2678 1.8038C9.82009 0.847218 11.0433 0.519467 11.9999 1.07175C12.9564 1.62404 13.2842 2.84722 12.7319 3.8038C12.1796 4.76039 10.9564 5.08814 9.99985 4.53585C9.04327 3.98357 8.71552 2.76039 9.2678 1.8038Z" fill="#EFC092"/>
<path d="M1.80371 9.26783C2.76029 8.71555 3.98347 9.0433 4.53576 9.99988C5.08804 10.9565 4.76029 12.1796 3.80371 12.7319C2.84712 13.2842 1.62394 12.9565 1.07166 11.9999C0.51937 11.0433 0.847121 9.82012 1.80371 9.26783Z" fill="#EFC092"/>
<path d="M12.196 3.26783C13.1526 2.71554 14.3758 3.04329 14.9281 3.99988C15.4804 4.95647 15.1526 6.17965 14.196 6.73193C13.2394 7.28422 12.0162 6.95647 11.464 5.99988C10.9117 5.0433 11.2394 3.82011 12.196 3.26783Z" fill="#EFC092"/>
<path fill-rule="evenodd" clip-rule="evenodd" d="M11.8649 5.04681C12.2909 5.47284 12.2909 6.16357 11.8649 6.58959L7.86316 10.5913C7.65857 10.7959 7.38109 10.9108 7.09177 10.9108C6.80244 10.9108 6.52496 10.7959 6.32038 10.5913L4.31952 8.59045C3.89349 8.16442 3.89349 7.4737 4.31952 7.04767C4.74555 6.62165 5.43627 6.62165 5.8623 7.04767L7.09177 8.27714L10.3221 5.04682C10.7481 4.62079 11.4388 4.62079 11.8649 5.04681Z" fill="white"/>
</svg>
