<svg width="13" height="8" viewBox="0 0 13 8" fill="none" xmlns="http://www.w3.org/2000/svg">
<path d="M2 0.5C1.83409 0.5 1.67898 0.582299 1.58597 0.719686C1.49295 0.857072 1.47414 1.03165 1.53576 1.1857L3.26148 5.5H1C0.826711 5.5 0.665778 5.58973 0.574675 5.73713C0.483571 5.88454 0.475289 6.06861 0.552786 6.22361L1.05279 7.22361C1.13748 7.393 1.31061 7.5 1.5 7.5H5.5C5.66718 7.5 5.82329 7.41645 5.91603 7.27735C6.00876 7.13825 6.02584 6.96201 5.96154 6.80769L3.46154 0.807692C3.3839 0.621369 3.20185 0.5 3 0.5H2ZM6 0.5C5.83282 0.5 5.67671 0.583551 5.58397 0.72265C5.49124 0.861749 5.47416 1.03799 5.53846 1.19231L8.03846 7.19231C8.1161 7.37863 8.29815 7.5 8.5 7.5H9.5C9.70185 7.5 9.8839 7.37863 9.96154 7.19231L12.4615 1.19231C12.5258 1.03799 12.5088 0.861749 12.416 0.72265C12.3233 0.583551 12.1672 0.5 12 0.5H11C10.8024 0.5 10.6233 0.616367 10.5431 0.796931L9 4.26889L7.45691 0.796931C7.37666 0.616367 7.19759 0.5 7 0.5H6Z" fill="url(#paint0_linear_6_4)" stroke="url(#paint1_linear_6_4)" stroke-linecap="round" stroke-linejoin="round"/>
<defs>
<linearGradient id="paint0_linear_6_4" x1="1" y1="1" x2="12" y2="7" gradientUnits="userSpaceOnUse">
<stop stop-color="#704D29"/>
<stop offset="1" stop-color="#EEBF90"/>
</linearGradient>
<linearGradient id="paint1_linear_6_4" x1="1" y1="1" x2="12" y2="7" gradientUnits="userSpaceOnUse">
<stop stop-color="#704D29"/>
<stop offset="1" stop-color="#EEBF90"/>
</linearGradient>
</defs>
</svg>
