<svg width="19" height="14" viewBox="0 0 19 14" fill="none" xmlns="http://www.w3.org/2000/svg">
<g filter="url(#filter0_d_6_4)">
<path d="M7 9L5 4H6L8.5 10H4.5L4 9H7Z" fill="url(#paint0_linear_6_4)"/>
<path d="M11.5 10L9 4H10L12 8.5L14 4H15L12.5 10H11.5Z" fill="url(#paint1_linear_6_4)"/>
<path d="M5 3.5C4.83409 3.5 4.67898 3.5823 4.58597 3.71969C4.49295 3.85707 4.47414 4.03165 4.53576 4.1857L6.26148 8.5H4C3.82671 8.5 3.66578 8.58973 3.57467 8.73713C3.48357 8.88454 3.47529 9.06861 3.55279 9.22361L4.05279 10.2236C4.13748 10.393 4.31061 10.5 4.5 10.5H8.5C8.66718 10.5 8.82329 10.4164 8.91603 10.2773C9.00876 10.1383 9.02584 9.96201 8.96154 9.80769L6.46154 3.80769C6.3839 3.62137 6.20185 3.5 6 3.5H5ZM9 3.5C8.83282 3.5 8.67671 3.58355 8.58397 3.72265C8.49124 3.86175 8.47416 4.03799 8.53846 4.19231L11.0385 10.1923C11.1161 10.3786 11.2981 10.5 11.5 10.5H12.5C12.7019 10.5 12.8839 10.3786 12.9615 10.1923L15.4615 4.19231C15.5258 4.03799 15.5088 3.86175 15.416 3.72265C15.3233 3.58355 15.1672 3.5 15 3.5H14C13.8024 3.5 13.6233 3.61637 13.5431 3.79693L12 7.26889L10.4569 3.79693C10.3767 3.61637 10.1976 3.5 10 3.5H9Z" stroke="url(#paint2_linear_6_4)" stroke-linecap="round" stroke-linejoin="round"/>
</g>
<defs>
<filter id="filter0_d_6_4" x="0" y="0" width="19" height="14" filterUnits="userSpaceOnUse" color-interpolation-filters="sRGB">
<feFlood flood-opacity="0" result="BackgroundImageFix"/>
<feColorMatrix in="SourceAlpha" type="matrix" values="0 0 0 0 0 0 0 0 0 0 0 0 0 0 0 0 0 0 127 0" result="hardAlpha"/>
<feOffset/>
<feGaussianBlur stdDeviation="1.5"/>
<feComposite in2="hardAlpha" operator="out"/>
<feColorMatrix type="matrix" values="0 0 0 0 1 0 0 0 0 1 0 0 0 0 1 0 0 0 1 0"/>
<feBlend mode="normal" in2="BackgroundImageFix" result="effect1_dropShadow_6_4"/>
<feBlend mode="normal" in="SourceGraphic" in2="effect1_dropShadow_6_4" result="shape"/>
</filter>
<linearGradient id="paint0_linear_6_4" x1="4" y1="4" x2="15" y2="10" gradientUnits="userSpaceOnUse">
<stop stop-color="#704D29"/>
<stop offset="1" stop-color="#EEBF90"/>
</linearGradient>
<linearGradient id="paint1_linear_6_4" x1="4" y1="4" x2="15" y2="10" gradientUnits="userSpaceOnUse">
<stop stop-color="#704D29"/>
<stop offset="1" stop-color="#EEBF90"/>
</linearGradient>
<linearGradient id="paint2_linear_6_4" x1="4" y1="4" x2="15" y2="10" gradientUnits="userSpaceOnUse">
<stop stop-color="#704D29"/>
<stop offset="1" stop-color="#EEBF90"/>
</linearGradient>
</defs>
</svg>
