<svg width="35" height="48" viewBox="0 0 35 48" fill="none" xmlns="http://www.w3.org/2000/svg">
<path d="M3.09478 44.1448L0 9.4332H34.0063L30.9082 44.1394L16.9823 48.0001L3.09478 44.1448Z" fill="#264DE4"/>
<path d="M28.2559 41.9294L30.9034 12.2714H17.0031V45.0491L28.2559 41.9294Z" fill="#2965F1"/>
<path d="M7.09461 25.1453L7.47618 29.4025H17.0031V25.1453H7.09461Z" fill="#EBEBEB"/>
<path d="M6.71496 20.786H17.0031V16.5287H16.9884H6.32796L6.71496 20.786Z" fill="#EBEBEB"/>
<path d="M16.9836 40.6366L17.0032 40.6312V36.2018L16.9846 36.2068L12.2433 34.9266L11.9402 31.5312H9.63626H7.66657L8.26301 38.2157L16.9836 40.6366Z" fill="#EBEBEB"/>
<path d="M8.0031 0H13.1593V2.15625H10.1593V4.3125H13.1593V6.46875H8.0031V0Z" fill="black"/>
<path d="M14.1906 0H19.3468V1.875H16.3468V2.25H19.3468V6.5625H14.1906V4.59375H17.1906V4.21875H14.1906V0Z" fill="black"/>
<path d="M20.3781 0H25.5343V1.875H22.5343V2.25H25.5343V6.5625H20.3781V4.59375H23.3781V4.21875H20.3781V0Z" fill="black"/>
<path d="M27.6528 16.5287H16.9884V20.786H22.9873L22.5999 25.1454H16.9884V29.4026H22.2307L21.7365 34.9239L16.9884 36.2055V40.6346L25.716 38.2158L25.78 37.4965L26.7804 26.2886L26.8843 25.1454L27.6528 16.5287Z" fill="white"/>
</svg>
