<svg width="35" height="48" viewBox="0 0 35 48" fill="none" xmlns="http://www.w3.org/2000/svg">
<path fill-rule="evenodd" clip-rule="evenodd" d="M34.0925 9.43318L30.9866 44.1393L17.0254 48L3.10262 44.1448L0 9.43318H34.0925Z" fill="#E44D26"/>
<path fill-rule="evenodd" clip-rule="evenodd" d="M17.0462 45.0491L28.3275 41.9294L30.9817 12.2714H17.0462V45.0491Z" fill="#F16529"/>
<path fill-rule="evenodd" clip-rule="evenodd" d="M11.0084 20.7859H17.0462V16.5286H6.34403L6.4462 17.6708L7.49519 29.4026H17.0462V25.1454H11.3985L11.0084 20.7859Z" fill="#EBEBEB"/>
<path fill-rule="evenodd" clip-rule="evenodd" d="M11.9703 31.5312H7.68589L8.28384 38.2157L17.0266 40.6366L17.0462 40.6311V36.2018L17.0275 36.2068L12.2742 34.9265L11.9703 31.5312Z" fill="#EBEBEB"/>
<path fill-rule="evenodd" clip-rule="evenodd" d="M3.17195 0H5.3409V2.1375H7.32498V0H9.49402V6.47288H7.32507V4.30538H5.34099V6.47288H3.17205V0H3.17195Z" fill="black"/>
<path fill-rule="evenodd" clip-rule="evenodd" d="M12.3462 2.1465H10.4368V0H16.4257V2.1465H14.5154V6.47288H12.3463V2.1465H12.3462Z" fill="black"/>
<path fill-rule="evenodd" clip-rule="evenodd" d="M17.3762 0H19.6378L21.029 2.27438L22.4188 0H24.6813V6.47288H22.5213V3.26457L21.029 5.56604H20.9917L19.4984 3.26457V6.47288H17.3762V0Z" fill="black"/>
<path fill-rule="evenodd" clip-rule="evenodd" d="M25.7607 0H27.9303V4.33332H30.9805V6.47288H25.7607V0Z" fill="black"/>
<path fill-rule="evenodd" clip-rule="evenodd" d="M17.0315 29.4025H22.2871L21.7917 34.9238L17.0315 36.2054V40.6345L25.7812 38.2156L25.8454 37.4964L26.8483 26.2885L26.9524 25.1453H17.0315V29.4025Z" fill="white"/>
<path fill-rule="evenodd" clip-rule="evenodd" d="M17.0315 20.7755V20.7859H27.3408L27.4264 19.829L27.6209 17.6708L27.7229 16.5286H17.0315V20.7755Z" fill="white"/>
</svg>
