<svg width="48" height="44" viewBox="0 0 48 44" fill="none" xmlns="http://www.w3.org/2000/svg">
<path d="M6.18047 28.2436C6.22146 28.3362 6.2678 28.4218 6.31771 28.5074C6.34088 28.5573 6.37296 28.6089 6.40148 28.6553C6.44782 28.748 6.49773 28.8371 6.54585 28.9262L6.82569 29.3968C6.87737 29.4841 6.92728 29.5696 6.9861 29.6552C7.08413 29.8227 7.19998 29.9867 7.30158 30.1543C7.34792 30.2238 7.3907 30.2933 7.44239 30.3628C7.63845 30.6676 7.81669 30.9207 8.0074 31.1667C8.14286 31.3502 8.27832 31.5303 8.42448 31.7103C8.4726 31.778 8.52607 31.8457 8.57598 31.9135L8.96989 32.3912C9.01801 32.4464 9.06613 32.5106 9.11782 32.5676C9.2925 32.7779 9.47786 32.9811 9.66323 33.1879C9.66323 33.1914 9.66858 33.195 9.67214 33.2004C9.90207 33.4891 10.1498 33.7458 10.4207 33.9739L10.4279 33.981C10.5705 34.1272 10.7131 34.2716 10.8646 34.4142L11.0446 34.587C11.2424 34.7724 11.4403 34.956 11.6488 35.1342C11.6524 35.1342 11.6541 35.1378 11.6577 35.1396L11.7593 35.2287C11.9411 35.3873 12.1247 35.5442 12.3118 35.6903L12.5346 35.8775C12.6861 35.9987 12.843 36.1128 12.9981 36.2322L13.2405 36.4175C13.4062 36.5423 13.5827 36.6635 13.752 36.7847C13.8144 36.8293 13.8768 36.8738 13.9409 36.9148L13.9926 36.9558L14.4935 37.2838L14.7074 37.4264C14.9694 37.5939 15.2296 37.7508 15.4898 37.9076C15.5647 37.945 15.6395 37.986 15.7091 38.0288C15.9016 38.1393 16.1012 38.2516 16.2955 38.3532C16.4024 38.4138 16.5129 38.4655 16.6234 38.5207C16.7571 38.5956 16.8961 38.6687 17.0387 38.7435C17.0779 38.756 17.11 38.7685 17.1421 38.7863L17.1492 38.7792C17.208 38.8059 17.2633 38.8344 17.3203 38.863C17.5342 38.9699 17.757 39.0715 17.9887 39.1713C18.0315 39.1891 18.0778 39.207 18.1242 39.2319C18.3808 39.3442 18.6375 39.4511 18.9031 39.5545C18.9637 39.5723 19.0278 39.6026 19.0902 39.6258C19.3308 39.7167 19.5786 39.8094 19.8246 39.8967L19.9137 39.9288C20.1864 40.0215 20.4555 40.1106 20.7336 40.1944C20.7977 40.2122 20.8637 40.2354 20.9314 40.2532C21.2148 40.3388 21.4893 40.4404 21.7763 40.4938C40.0866 43.8144 45.407 29.5393 45.407 29.5393C40.9368 35.3321 33.0035 36.8596 25.4907 35.1592C25.2127 35.095 24.9346 35.0059 24.653 34.9239C24.2555 34.8114 23.8615 34.6872 23.4713 34.5514L23.6406 34.6031L23.5301 34.5603C23.2877 34.4783 23.0542 34.3874 22.8172 34.2965C22.7592 34.2719 22.7003 34.2493 22.6407 34.2288L22.6211 34.2234C22.3591 34.1183 22.1042 34.0113 21.8511 33.899C21.7959 33.8812 21.7495 33.8563 21.6943 33.8349C21.3945 33.7042 21.0974 33.5676 20.8031 33.4249L21.0491 33.5337C20.9849 33.5053 20.9218 33.4744 20.8601 33.441C20.6926 33.3625 20.525 33.2734 20.3611 33.1897C20.2362 33.1305 20.1131 33.0675 19.9921 33.0007L20.0278 33.0185C19.8263 32.9116 19.6249 32.7958 19.4217 32.687C19.3611 32.6443 19.2916 32.6086 19.2221 32.5694C18.9201 32.3938 18.6218 32.212 18.3274 32.024L18.4397 32.0917C18.3642 32.0451 18.2905 31.9958 18.2186 31.9438L18.2293 31.9509C18.0378 31.8332 17.8499 31.7096 17.6661 31.5802C17.6055 31.541 17.5502 31.4982 17.4879 31.4554C17.2958 31.3243 17.1068 31.1888 16.9211 31.049L16.9638 31.0793C16.889 31.0187 16.8088 30.9617 16.7286 30.9029C16.5717 30.7799 16.4131 30.6622 16.2562 30.5339L16.0459 30.3664C15.8218 30.188 15.6019 30.0044 15.3864 29.8156L15.3847 29.8138L14.7662 29.2524L14.5879 29.0848C14.4418 28.9369 14.2921 28.7961 14.1423 28.6499L13.9695 28.4717C13.7849 28.289 13.6048 28.1017 13.4294 27.9103L13.4187 27.8978L13.3884 27.8728C13.1997 27.6656 13.0137 27.4558 12.8305 27.2436C12.7824 27.1884 12.7378 27.1296 12.6879 27.0708L12.2833 26.5806C12.1009 26.3515 11.9227 26.1192 11.7486 25.8837L11.6773 25.7839C7.51012 20.123 6.00223 12.3109 9.33706 5.90146L6.39257 9.62485C2.60502 15.0415 3.07378 22.0854 5.97014 27.8372C6.03609 27.978 6.10917 28.1099 6.18047 28.2436Z" fill="#1266A9"/>
<path d="M18.9369 20.4403L18.9173 20.4118L18.9013 20.3904L18.9369 20.4403Z" fill="black"/>
<path d="M20.9296 22.7788L21.0901 22.9392C21.2932 23.1353 21.5018 23.326 21.7139 23.5167L21.7406 23.5399C21.9545 23.7288 22.1951 23.9266 22.4429 24.1191L22.4803 24.1476C22.5409 24.1886 22.5926 24.2368 22.6514 24.2778C22.9009 24.4703 23.1523 24.6538 23.4143 24.8374L23.441 24.8535C23.5515 24.9337 23.6692 25.0068 23.7939 25.0852C23.8438 25.1173 23.9009 25.16 23.9543 25.1921C24.1433 25.3133 24.3286 25.4256 24.5193 25.5415C24.5496 25.5539 24.5764 25.57 24.6049 25.5825C24.7653 25.6805 24.94 25.775 25.1075 25.8605C25.1663 25.8962 25.2234 25.9229 25.284 25.9568C25.4034 26.0156 25.521 26.078 25.6351 26.1386L25.6921 26.1635C25.9328 26.2812 26.1787 26.3917 26.4194 26.5004C26.48 26.5236 26.5316 26.5432 26.5833 26.5681C26.7812 26.6537 26.9826 26.7357 27.1804 26.8105C27.2696 26.8408 27.3533 26.8765 27.4371 26.9032C27.6189 26.9709 27.8096 27.0333 27.9896 27.0957L28.2392 27.1759C28.4994 27.2561 28.7632 27.3613 29.0395 27.4041C43.1791 29.7318 46.4515 18.9003 46.4515 18.9003C43.5052 23.1192 37.8034 25.1297 31.7273 23.5595C31.424 23.483 31.1232 23.3968 30.8254 23.301L30.927 23.3295C30.8414 23.3064 30.7666 23.2796 30.6846 23.2547C30.4992 23.1905 30.3085 23.1281 30.1285 23.0622L29.8718 22.9659C29.6722 22.8857 29.469 22.8109 29.2747 22.7253C29.2141 22.6986 29.1589 22.6808 29.1125 22.654C28.863 22.5417 28.6117 22.4312 28.3675 22.3136L28.0003 22.1229L27.7882 22.0159C27.6242 21.9304 27.4727 21.8413 27.3159 21.7504C27.2759 21.7316 27.2372 21.7101 27.2 21.6862L27.2054 21.688C27.0165 21.5703 26.8204 21.4563 26.6386 21.3368C26.578 21.303 26.5227 21.262 26.4657 21.2263L26.095 20.9857C25.8383 20.8075 25.587 20.6168 25.3321 20.4314C25.2751 20.3797 25.2198 20.3369 25.1646 20.2906C22.4928 18.1999 20.386 15.3427 19.3861 12.1077C18.3327 8.74434 18.5644 4.97283 20.3842 1.91249L18.1473 5.06373C15.4007 8.98675 15.5558 14.2305 17.6946 18.3799C18.085 19.1463 18.4807 19.7933 18.9173 20.41C19.3237 20.9911 19.7729 21.6719 20.3147 22.1389C20.5072 22.3581 20.714 22.5667 20.9296 22.7788Z" fill="#1266A9"/>
<path d="M8.01631 31.1773L8.00918 31.1667L7.9967 31.1506L8.01631 31.1773ZM15.4274 29.8513L15.4453 29.8637L15.4488 29.8691L15.4274 29.8513Z" fill="black"/>
<path d="M28.0324 1.65226C26.4122 4.01748 26.2572 6.95484 27.3729 9.56245C28.5582 12.3323 30.9805 14.5068 33.8037 15.537C33.9196 15.5815 34.0319 15.619 34.1513 15.6617L34.3082 15.7099C34.4721 15.7616 34.6379 15.8222 34.8072 15.8596C42.6158 17.3586 44.7297 11.8706 45.2983 11.0632C43.4393 13.719 40.3219 14.3571 36.4969 13.432C36.1643 13.3509 35.837 13.2497 35.5166 13.129L35.5754 13.1486C35.1768 13.0106 34.7864 12.85 34.4062 12.6674L34.4739 12.6977C33.7431 12.3412 33.1158 11.9562 32.5329 11.5142C29.1143 8.92971 27.0004 4.00857 29.2319 0L28.0324 1.65226Z" fill="#1266A9"/>
</svg>
