<svg width="48" height="48" viewBox="0 0 48 48" fill="none" xmlns="http://www.w3.org/2000/svg">
<g clip-path="url(#clip0_87_14)">
<path d="M23.85 0.130493L25.131 2.53649C25.419 2.98049 25.731 3.37349 26.0985 3.73949C27.171 4.81199 28.1895 5.93549 29.1045 7.13849C31.275 9.98849 32.739 13.1535 33.7845 16.5765C34.4115 18.6675 34.752 20.8125 34.7775 22.9815C34.8825 29.466 32.6595 35.034 28.1775 39.6615C27.4455 40.3935 26.6625 41.0715 25.8225 41.6745C25.3785 41.6745 25.1685 41.334 24.9855 41.0205C24.645 40.446 24.4365 39.7905 24.3315 39.138C24.174 38.3535 24.0705 37.569 24.1215 36.759V36.393C24.0855 36.315 23.694 0.314993 23.85 0.130493Z" fill="#599636"/>
<path d="M23.85 0.0509942C23.7975 -0.0540058 23.745 0.0254942 23.6925 0.0764942C23.718 0.601494 23.535 1.06949 23.2485 1.51649C22.9335 1.96049 22.5165 2.30099 22.098 2.66699C19.773 4.67999 17.943 7.11149 16.4775 9.83099C14.5275 13.491 13.5225 17.4135 13.2375 21.543C13.107 23.0325 13.7085 28.2885 14.178 29.805C15.459 33.831 17.76 37.2045 20.7405 40.1325C21.4725 40.8375 22.2555 41.4915 23.0655 42.12C23.301 42.12 23.3265 41.91 23.3805 41.754C23.4837 41.4202 23.5625 41.0793 23.616 40.734L24.141 36.813L23.85 0.0509942Z" fill="#6CAC48"/>
<path d="M25.131 43.2675C25.1835 42.6675 25.4715 42.1695 25.785 41.673C25.47 41.5425 25.236 41.283 25.053 40.9935C24.8955 40.7325 24.765 40.419 24.663 40.131C24.297 39.033 24.219 37.881 24.114 36.759V36.0795C23.9835 36.1845 23.9565 37.0725 23.9565 37.2045C23.8802 38.3904 23.7228 39.5696 23.4855 40.734C23.4075 41.205 23.355 41.6745 23.0655 42.093C23.0655 42.1455 23.0655 42.198 23.091 42.276C23.562 43.662 23.691 45.0735 23.7705 46.512V47.037C23.7705 47.664 23.745 47.532 24.2655 47.742C24.4755 47.82 24.7095 47.847 24.9195 48.003C25.077 48.003 25.1025 47.8725 25.1025 47.7675L25.0245 46.905V44.499C24.999 44.079 25.077 43.662 25.1295 43.269L25.131 43.2675Z" fill="#C2BFBF"/>
</g>
<defs>
<clipPath id="clip0_87_14">
<rect width="48" height="48" fill="white"/>
</clipPath>
</defs>
</svg>
