<svg width="49" height="49" viewBox="0 0 49 49" fill="none" xmlns="http://www.w3.org/2000/svg">
<g clip-path="url(#clip0_159_57)">
<path fill-rule="evenodd" clip-rule="evenodd" d="M44.4455 37.9739C41.8349 37.9012 39.8096 38.1688 38.1121 38.8828C37.6233 39.0791 36.839 39.0791 36.7746 39.6943C37.0358 39.9524 37.0672 40.3749 37.2963 40.7327C37.6877 41.382 38.374 42.2568 38.9938 42.7105L41.0827 44.2033C42.3558 44.9814 43.7921 45.4358 45.0323 46.2146C45.7508 46.6691 46.4686 47.253 47.1871 47.7402C47.553 47.9997 47.7747 48.4222 48.232 48.5836V48.4855C48.0037 48.1946 47.9378 47.7729 47.7103 47.4471L46.7298 46.5069C45.7838 45.2417 44.6079 44.1379 43.3348 43.2304C42.29 42.5164 40.0057 41.5434 39.5813 40.3436L39.5169 40.2709C40.234 40.1982 41.0827 39.9459 41.769 39.751C42.8797 39.4602 43.8909 39.5242 45.0323 39.2326L46.6003 38.7781V38.4873C46.0128 37.9034 45.5884 37.1246 44.9687 36.5734C43.3041 35.146 41.4749 33.7506 39.5813 32.5828C38.5694 31.9342 37.2633 31.5118 36.1863 30.9613C35.7934 30.7664 35.1415 30.669 34.9132 30.3447C34.3242 29.6321 33.9986 28.6904 33.5742 27.8462L30.8977 22.2014C30.3102 20.9362 29.9502 19.671 29.2332 18.5032C25.8704 12.9878 22.2134 9.64656 16.5985 6.36933C15.3912 5.68799 13.955 5.39495 12.4279 5.03865L9.97973 4.90777C9.45658 4.6809 8.9349 4.06428 8.4776 3.77197C6.61694 2.60417 1.81785 0.0737146 0.445956 3.40839C-0.435718 5.51711 1.752 7.59311 2.49466 8.66419C3.05073 9.41024 3.76778 10.2537 4.16069 11.0972C4.38019 11.6484 4.45337 12.233 4.68238 12.8169C5.20407 14.2443 5.69429 15.8346 6.37988 17.1652C6.74572 17.8466 7.12985 18.5613 7.58715 19.1772C7.84836 19.5408 8.30565 19.6964 8.40297 20.2803C7.94567 20.9296 7.91421 21.9018 7.653 22.7141C6.47719 26.3803 6.93449 30.9221 8.59906 33.6212C9.12221 34.432 10.3551 36.2171 12.0277 35.535C13.4969 34.9512 13.1691 33.102 13.5935 31.4798C13.6923 31.0908 13.6264 30.8312 13.8218 30.5708V30.6436L15.1608 33.3362C16.1727 34.9257 17.936 36.5807 19.4045 37.6845C20.1874 38.2684 20.8079 39.2748 21.7869 39.6311V39.5329H21.7225C21.5264 39.242 21.2322 39.1111 20.971 38.8843C20.3835 38.3004 19.7308 37.5863 19.2735 36.9377C17.9031 35.1213 16.6958 33.1093 15.6181 31.0333C15.0949 30.0277 14.6376 28.9246 14.2147 27.9189C14.0172 27.5292 14.0172 26.9446 13.6916 26.7512C13.2013 27.4638 12.4843 28.0818 12.1236 28.9573C11.5031 30.352 11.4387 32.0717 11.2104 33.8561C11.0787 33.8888 11.1373 33.8561 11.0787 33.9288C10.0354 33.6699 9.67536 32.5981 9.28392 31.6906C8.30493 29.3871 8.14103 25.6888 8.98977 23.0282C9.21806 22.3469 10.1985 20.2054 9.80706 19.5568C9.60951 18.9402 8.95831 18.5839 8.59832 18.0967C8.17395 17.4801 7.71812 16.702 7.42398 16.0207C6.64108 14.2028 6.24964 12.1923 5.40016 10.3752C5.00724 9.53167 4.3224 8.65546 3.76705 7.87742C3.14659 7.00121 2.46246 6.38459 1.97224 5.34696C1.80907 4.98339 1.58079 4.40604 1.842 4.01629C1.90639 3.7567 2.03809 3.65272 2.29784 3.59454C2.72221 3.23097 3.93094 3.69198 4.35532 3.8854C5.56259 4.37259 6.5745 4.82633 7.58641 5.50693C8.04371 5.83124 8.53394 6.44786 9.12148 6.61074H9.80779C10.8526 6.83761 12.027 6.68345 13.0052 6.97431C14.7357 7.52694 16.3022 8.33697 17.707 9.21391C21.9829 11.9065 25.5096 15.7349 27.892 20.3101C28.2834 21.0562 28.4466 21.7375 28.8066 22.5163C29.4929 24.1065 30.3417 25.7281 31.0258 27.2863C31.7121 28.8112 32.3647 30.3694 33.3437 31.6347C33.834 32.316 35.7919 32.6723 36.6729 33.0293C37.3263 33.3202 38.3375 33.5819 38.9265 33.9382C40.0357 34.6196 41.1456 35.3983 42.1897 36.1444C42.7114 36.5327 44.3445 37.3442 44.4419 37.9913L44.4455 37.9739ZM11.1541 9.78108C10.7031 9.77712 10.2534 9.83163 9.81658 9.94324V10.0159H9.88096C10.1422 10.5351 10.5995 10.8922 10.9258 11.3466L11.6772 12.9042L11.7416 12.8314C12.1989 12.5071 12.4279 11.988 12.4279 11.2099C12.2319 10.983 12.1997 10.7555 12.0365 10.5286C11.8404 10.2043 11.416 10.0414 11.1541 9.78254V9.78108Z" fill="#00678C"/>
</g>
<defs>
<clipPath id="clip0_159_57">
<rect width="48" height="48" fill="white" transform="translate(0.231846 0.584473)"/>
</clipPath>
</defs>
</svg>
