<svg width="44" height="48" viewBox="0 0 44 48" fill="none" xmlns="http://www.w3.org/2000/svg">
<g clip-path="url(#clip0_12_400)">
<path d="M19.8305 0.60936C21.0155 -0.0689376 22.559 -0.0720014 23.743 0.60936C29.6996 3.97515 35.658 7.33566 41.6136 10.7035C42.7338 11.3345 43.4831 12.5811 43.4717 13.8718V34.1217C43.48 35.4659 42.6567 36.7423 41.4749 37.359C35.5379 40.7062 29.6039 44.0575 23.6679 47.4048C22.4584 48.0963 20.8839 48.0431 19.7122 47.2948C17.9323 46.263 16.1493 45.2363 14.3692 44.2054C14.0054 43.9886 13.5954 43.816 13.3386 43.4633C13.5656 43.1573 13.9716 43.1191 14.3014 42.9855C15.0444 42.7493 15.7268 42.37 16.4094 42.002C16.582 41.8839 16.7927 41.9292 16.9581 42.0349C18.4802 42.9076 19.9888 43.8056 21.5159 44.67C21.8417 44.858 22.1716 44.6083 22.45 44.4531C28.2761 41.1603 34.1093 37.88 39.9343 34.5862C40.1501 34.4824 40.2694 34.2533 40.2519 34.0169C40.256 27.3369 40.2529 20.6557 40.254 13.9757C40.2786 13.7074 40.1234 13.4608 39.8809 13.351C33.9644 10.0191 28.0511 6.68204 22.1357 3.34928C22.0332 3.27882 21.9118 3.24101 21.7874 3.24083C21.663 3.24065 21.5415 3.2781 21.4388 3.34825C15.5234 6.68204 9.61106 10.0221 3.69566 13.3539C3.45396 13.4638 3.29174 13.7064 3.32051 13.9757C3.32153 20.6557 3.32051 27.3368 3.32051 34.0179C3.31025 34.1332 3.33559 34.249 3.39311 34.3495C3.45062 34.45 3.53756 34.5305 3.64221 34.5801C5.22076 35.4752 6.80136 36.3641 8.38094 37.2562C9.27081 37.7351 10.3634 38.0197 11.3438 37.6528C12.209 37.3425 12.8155 36.4596 12.799 35.5409C12.8071 28.8999 12.7949 22.2579 12.8051 15.6179C12.7835 15.3231 13.0631 15.0795 13.3498 15.1072C14.1083 15.1021 14.8677 15.097 15.6262 15.1093C15.9428 15.1021 16.1607 15.4196 16.1215 15.7166C16.1185 22.3997 16.1297 29.0829 16.1164 35.766C16.1185 37.5471 15.3867 39.4851 13.7392 40.3566C11.7096 41.408 9.20102 41.185 7.19591 40.1769C5.46008 39.3105 3.80357 38.288 2.09855 37.3598C0.913701 36.7466 0.0944672 35.465 0.102808 34.1219V13.8718C0.0903821 12.5544 0.869446 11.2851 2.02451 10.6633C7.96051 7.31336 13.8955 3.96085 19.8305 0.60936Z" fill="#8CC84B"/>
<path d="M25.009 14.6366C27.598 14.47 30.3695 14.5379 32.6992 15.8133C34.503 16.7906 35.503 18.8419 35.5348 20.8458C35.4844 21.1161 35.2019 21.2652 34.9438 21.2466C34.1927 21.2456 33.4414 21.2568 32.6902 21.2415C32.3716 21.2538 32.1864 20.96 32.1464 20.6783C31.9306 19.7195 31.4077 18.7699 30.5052 18.3074C29.1198 17.6138 27.5135 17.6487 26.0029 17.6631C24.9001 17.7217 23.7142 17.8172 22.7799 18.4657C22.0626 18.9569 21.8448 19.9486 22.1008 20.7472C22.3421 21.3207 23.0041 21.5057 23.5457 21.6763C26.6657 22.4923 29.9719 22.4111 33.0323 23.4849C34.2994 23.9227 35.5389 24.7738 35.9726 26.1004C36.5399 27.8785 36.2912 30.0037 35.0262 31.4311C34.0003 32.6058 32.5062 33.2451 31.016 33.5923C29.0335 34.0344 26.9762 34.0456 24.9629 33.8494C23.0698 33.6335 21.0997 33.1362 19.6383 31.8463C18.3886 30.7612 17.7782 29.0705 17.8388 27.4386C17.8533 27.1631 18.1277 26.9709 18.3917 26.9935C19.1481 26.9874 19.9045 26.9854 20.6609 26.9946C20.9631 26.9729 21.1871 27.234 21.2026 27.5188C21.3421 28.4323 21.6854 29.3911 22.482 29.9328C24.0194 30.9246 25.9484 30.8567 27.7088 30.8844C29.1671 30.8197 30.8043 30.8002 31.9944 29.8363C32.6223 29.2865 32.8083 28.3666 32.6386 27.5753C32.4548 26.9072 31.7559 26.5959 31.1557 26.3923C28.0757 25.418 24.7326 25.7716 21.6824 24.6698C20.4441 24.2322 19.2466 23.4048 18.7709 22.1326C18.1071 20.3321 18.4112 18.105 19.8089 16.7258C21.1716 15.3539 23.1387 14.8257 25.009 14.6366Z" fill="#8CC84B"/>
</g>
<defs>
<clipPath id="clip0_12_400">
<rect width="43.584" height="48" fill="white"/>
</clipPath>
</defs>
</svg>
