<svg width="48" height="48" viewBox="0 0 48 48" fill="none" xmlns="http://www.w3.org/2000/svg">
<g clip-path="url(#clip0_12_387)">
<path d="M23.7945 0.0134888C11.6397 0.0134888 12.3986 5.28456 12.3986 5.28456L12.4121 10.7455H24.0112V12.3851H7.80508C7.80508 12.3851 0.0271835 11.503 0.0271835 23.7671C0.0271835 36.0317 6.81592 35.5967 6.81592 35.5967H10.8674V29.9055C10.8674 29.9055 10.649 23.1168 17.5478 23.1168H29.0521C29.0521 23.1168 35.5155 23.2212 35.5155 16.87V6.36877C35.5155 6.36877 36.4972 0.0134888 23.7945 0.0134888ZM17.3987 3.68589C17.6728 3.68565 17.9443 3.73945 18.1976 3.84423C18.4508 3.94901 18.681 4.1027 18.8748 4.29652C19.0686 4.49033 19.2223 4.72046 19.3271 4.97374C19.4319 5.22702 19.4857 5.49848 19.4854 5.77257C19.4857 6.04667 19.4319 6.31812 19.3271 6.5714C19.2223 6.82468 19.0686 7.05481 18.8748 7.24863C18.681 7.44244 18.4508 7.59614 18.1976 7.70091C17.9443 7.80569 17.6728 7.8595 17.3987 7.85925C17.1246 7.8595 16.8532 7.80569 16.5999 7.70091C16.3466 7.59614 16.1165 7.44244 15.9227 7.24863C15.7289 7.05481 15.5752 6.82468 15.4704 6.5714C15.3656 6.31812 15.3118 6.04667 15.3121 5.77257C15.3118 5.49848 15.3656 5.22702 15.4704 4.97374C15.5752 4.72046 15.7289 4.49033 15.9227 4.29652C16.1165 4.1027 16.3466 3.94901 16.5999 3.84423C16.8532 3.73945 17.1246 3.68565 17.3987 3.68589Z" fill="url(#paint0_linear_12_387)"/>
<path d="M24.1397 47.6441C36.2945 47.6441 35.5356 42.3731 35.5356 42.3731L35.5221 36.9123H23.9227V35.2727H40.1289C40.1289 35.2727 47.9068 36.1548 47.9068 23.8903C47.9068 11.626 41.1181 12.0609 41.1181 12.0609H37.0666V17.752C37.0666 17.752 37.285 24.5407 30.3862 24.5407H18.8819C18.8819 24.5407 12.4185 24.4363 12.4185 30.7876V41.2891C12.4185 41.2891 11.437 47.6441 24.1395 47.6441H24.1397ZM30.5354 43.9721C30.2613 43.9724 29.9899 43.9186 29.7366 43.8138C29.4833 43.709 29.2532 43.5553 29.0594 43.3615C28.8656 43.1677 28.7119 42.9375 28.6071 42.6843C28.5023 42.431 28.4485 42.1595 28.4488 41.8854C28.4485 41.6113 28.5023 41.3398 28.607 41.0865C28.7118 40.8332 28.8655 40.6031 29.0593 40.4093C29.2531 40.2154 29.4833 40.0617 29.7366 39.9569C29.9899 39.8521 30.2613 39.7983 30.5354 39.7986C30.8095 39.7983 31.081 39.8521 31.3343 39.9569C31.5875 40.0617 31.8177 40.2154 32.0115 40.4092C32.2053 40.603 32.359 40.8331 32.4638 41.0864C32.5686 41.3397 32.6224 41.6111 32.6221 41.8852C32.6224 42.1593 32.5686 42.4308 32.4638 42.6841C32.359 42.9374 32.2053 43.1675 32.0115 43.3613C31.8177 43.5551 31.5875 43.7088 31.3343 43.8136C31.081 43.9184 30.8095 43.9724 30.5354 43.9721Z" fill="url(#paint1_linear_12_387)"/>
</g>
<defs>
<linearGradient id="paint0_linear_12_387" x1="460.149" y1="428.423" x2="2832.92" y2="2777.52" gradientUnits="userSpaceOnUse">
<stop stop-color="#387EB8"/>
<stop offset="1" stop-color="#366994"/>
</linearGradient>
<linearGradient id="paint1_linear_12_387" x1="691.558" y1="744.365" x2="3239.64" y2="3153.15" gradientUnits="userSpaceOnUse">
<stop stop-color="#FFE052"/>
<stop offset="1" stop-color="#FFC331"/>
</linearGradient>
<clipPath id="clip0_12_387">
<rect width="48" height="47.808" fill="white"/>
</clipPath>
</defs>
</svg>
