<svg width="48" height="48" viewBox="0 0 48 48" fill="none" xmlns="http://www.w3.org/2000/svg">
<g clip-path="url(#clip0_12_411)">
<path d="M24.0002 28.2466C26.3674 28.2466 28.2864 26.3276 28.2864 23.9603C28.2864 21.5931 26.3674 19.6741 24.0002 19.6741C21.6329 19.6741 19.7139 21.5931 19.7139 23.9603C19.7139 26.3276 21.6329 28.2466 24.0002 28.2466Z" fill="#00D8FF"/>
<path fill-rule="evenodd" clip-rule="evenodd" d="M24.0003 15.2454C29.7552 15.2454 35.1013 16.0712 39.1323 17.4589C43.989 19.131 46.9752 21.6654 46.9752 23.9603C46.9752 26.3518 43.8105 29.0443 38.595 30.7723C34.6519 32.0787 29.4631 32.7606 24.0003 32.7606C18.3993 32.7606 13.0956 32.1205 9.10807 30.7579C4.06318 29.0336 1.02459 26.3063 1.02459 23.9603C1.02459 21.684 3.87572 19.1692 8.66421 17.4997C12.7102 16.0891 18.1884 15.2454 23.9995 15.2454H24.0003Z" stroke="#00D8FF" stroke-width="2.73408"/>
<path fill-rule="evenodd" clip-rule="evenodd" d="M16.4137 19.628C19.2888 14.6428 22.6747 10.4241 25.8907 7.62539C29.7654 4.25342 33.4527 2.93286 35.4407 4.07921C37.5124 5.27391 38.2638 9.3606 37.1552 14.7418C36.3179 18.8103 34.3157 23.6457 31.5866 28.378C28.7884 33.23 25.5844 37.5047 22.4123 40.2774C18.3983 43.7863 14.5176 45.0561 12.4854 43.8841C10.5135 42.7477 9.75938 39.0208 10.7054 34.0386C11.5047 29.8289 13.5105 24.662 16.4128 19.6279L16.4137 19.628Z" stroke="#00D8FF" stroke-width="2.73408"/>
<path fill-rule="evenodd" clip-rule="evenodd" d="M16.4209 28.3907C13.5377 23.4111 11.5747 18.3697 10.7554 14.1859C9.76903 9.14494 10.4664 5.29074 12.4525 4.14106C14.5222 2.94285 18.438 4.33279 22.5464 7.98074C25.6527 10.7387 28.8423 14.8875 31.5794 19.6154C34.3856 24.4626 36.4888 29.3735 37.3069 33.5064C38.3422 38.7364 37.5043 42.7325 35.474 43.9078C33.504 45.0483 29.899 43.8408 26.0551 40.5329C22.8073 37.7382 19.3325 33.4198 16.4209 28.3906V28.3907Z" stroke="#00D8FF" stroke-width="2.73408"/>
</g>
<defs>
<clipPath id="clip0_12_411">
<rect width="48" height="48" fill="white"/>
</clipPath>
</defs>
</svg>
