<svg width="48" height="48" viewBox="0 0 48 48" fill="none" xmlns="http://www.w3.org/2000/svg">
<path d="M24.2565 28.05C23.535 28.3815 22.7445 28.8135 21.162 29.682C20.562 30.0195 19.935 30.357 19.3515 30.675C19.311 30.6345 19.269 30.5835 19.2285 30.5415C16.098 27.1965 10.308 24.834 10.554 20.3415C10.6455 18.705 11.208 14.409 21.6735 9.192C30.2865 4.947 37.14 6.123 38.3235 8.7315C40.0245 12.45 34.65 19.3695 25.755 20.373C24.7705 20.5727 23.7538 20.5486 22.7799 20.3024C21.806 20.0563 20.8999 19.5944 20.1285 18.951C19.6575 18.4395 19.587 18.4095 19.413 18.5115C19.1265 18.6615 19.311 19.125 19.413 19.3905C19.7523 20.0048 20.2113 20.5449 20.7629 20.9787C21.3145 21.4126 21.9475 21.7315 22.6245 21.9165C26.1249 22.6731 29.7745 22.3116 33.0585 20.883C38.4495 18.7965 42.6585 12.996 41.4255 8.133C40.188 3.2025 32.004 1.5765 24.261 4.3275C19.4119 5.96159 14.9318 8.53396 11.076 11.898C6.81 15.888 6.135 19.356 6.411 20.808C7.404 25.9635 14.511 29.319 17.361 31.8045C17.211 31.887 17.085 31.9545 16.9725 32.019C15.5505 32.7255 10.1295 35.559 8.778 38.556C7.2435 41.952 9.024 44.3865 10.2 44.7135C11.9722 45.138 13.8328 44.9985 15.5219 44.3143C17.211 43.6302 18.6442 42.4357 19.6215 40.8975C20.4514 39.622 20.961 38.165 21.107 36.6503C21.253 35.1356 21.031 33.608 20.46 32.1975C20.7969 31.9288 21.1562 31.6894 21.534 31.482C22.26 31.053 22.9515 30.63 23.565 30.303C25.6656 29.3191 27.9579 28.8125 30.2775 28.8195C35.1465 29.3925 36.108 32.43 35.9235 33.7095C35.8372 34.1635 35.6546 34.5937 35.3881 34.9712C35.1216 35.3487 34.7774 35.6647 34.3785 35.898C34.041 36.1125 33.9285 36.1845 33.9585 36.3375C33.999 36.5625 34.1625 36.552 34.449 36.5115C35.1805 36.2803 35.825 35.8332 36.2978 35.229C36.7706 34.6248 37.0495 33.8917 37.098 33.126C37.248 30.126 34.3875 26.835 29.3235 26.865C27.8072 26.8676 26.306 27.1667 24.9045 27.7455C24.6795 27.8385 24.461 27.9385 24.249 28.0455L24.2565 28.05ZM17.019 39.8085C15.402 41.568 13.152 42.2325 12.18 41.67C11.13 41.07 11.5455 38.4675 13.53 36.606C14.7053 35.547 15.9757 34.5985 17.325 33.7725C17.5605 33.6225 17.9085 33.4245 18.327 33.1725C18.399 33.132 18.4395 33.111 18.4395 33.111L18.6855 32.961C19.0394 34.1477 19.0716 35.4071 18.7788 36.6102C18.486 37.8134 17.8787 38.9172 17.019 39.8085Z" fill="#CD6799"/>
</svg>
