<svg width="48" height="48" viewBox="0 0 48 48" fill="none" xmlns="http://www.w3.org/2000/svg">
<g clip-path="url(#clip0_160_59)">
<path d="M23.9816 0.000366211C10.761 0.000366211 0.00037384 10.761 0.00037384 23.9816C0.00037384 37.2022 10.761 47.9629 23.9816 47.9629C37.2022 47.9629 47.9629 37.2022 47.9629 23.9816C47.9629 10.761 37.2026 0.000366211 23.9816 0.000366211ZM23.9816 4.00499C35.0381 4.00499 43.9586 12.9251 43.9586 23.9816C43.9586 35.0385 35.0381 43.9586 23.9816 43.9586C12.9251 43.9586 4.00462 35.0385 4.00462 23.9816C4.00462 12.9251 12.9251 4.00499 23.9816 4.00499Z" fill="#010101"/>
<path fill-rule="evenodd" clip-rule="evenodd" d="M18.1463 22.7685C23.3977 18.4785 28.5345 14.0392 33.9004 9.87448C31.086 14.1994 28.1914 18.4669 25.377 22.7914C22.9631 22.8026 20.5489 22.8026 18.1463 22.7685ZM22.5855 25.1595C25.011 25.1595 27.4249 25.1595 29.8387 25.194C24.5531 29.4615 19.4393 33.9349 14.0621 38.088C16.8765 33.7631 19.7711 29.4844 22.5855 25.1595Z" fill="#010101"/>
</g>
<defs>
<clipPath id="clip0_160_59">
<rect width="48" height="48" fill="white"/>
</clipPath>
</defs>
</svg>
