<svg width="48" height="29" viewBox="0 0 48 29" fill="none" xmlns="http://www.w3.org/2000/svg">
<path d="M24 0C17.6001 0 13.5999 3.20006 12 9.59999C14.4 6.39993 17.1999 5.19993 20.4 6C22.2257 6.45637 23.5307 7.78106 24.9752 9.24712C27.3283 11.6357 30.0516 14.4 36 14.4C42.3999 14.4 46.4001 11.1999 48 4.8C45.6 8.00006 42.8001 9.20006 39.6 8.4C37.7743 7.94362 36.4693 6.61893 35.0248 5.15287C32.6717 2.76431 29.9484 0 24 0ZM12 14.4C5.60006 14.4 1.59994 17.6001 0 24C2.4 20.7999 5.19994 19.5999 8.4 20.4C10.2257 20.8564 11.5307 22.181 12.9752 23.6471C15.3283 26.0357 18.0516 28.8 24 28.8C30.3999 28.8 34.4001 25.5999 36 19.2C33.6 22.4001 30.8001 23.6 27.6 22.8C25.7743 22.3436 24.4693 21.0189 23.0248 19.5529C20.6717 17.1643 17.9484 14.4 12 14.4Z" fill="url(#paint0_linear_12_357)"/>
<defs>
<linearGradient id="paint0_linear_12_357" x1="-341.361" y1="1415.58" x2="-199.228" y2="3010.49" gradientUnits="userSpaceOnUse">
<stop stop-color="#2298BD"/>
<stop offset="1" stop-color="#0ED7B5"/>
</linearGradient>
</defs>
</svg>
