<svg width="48" height="48" viewBox="0 0 48 48" fill="none" xmlns="http://www.w3.org/2000/svg">
<g clip-path="url(#clip0_48_774)">
<path d="M24 48C37.2549 48 48 37.2548 48 24C48 10.7452 37.2549 0 24 0C10.7452 0 3.05176e-05 10.7452 3.05176e-05 24C3.05176e-05 37.2548 10.7452 48 24 48Z" fill="url(#paint0_linear_48_774)"/>
<path d="M23.9738 45.975C36.0957 45.975 45.9225 36.1482 45.9225 24.0262C45.9225 11.9043 36.0957 2.0775 23.9738 2.0775C11.8518 2.0775 2.02502 11.9043 2.02502 24.0262C2.02502 36.1482 11.8518 45.975 23.9738 45.975Z" fill="url(#paint1_linear_48_774)"/>
<path d="M18.8316 20.6334C18.5681 21.0281 18.3188 21.4359 18.0816 21.8297C17.8181 21.1059 17.5819 20.3962 17.385 19.6997C18.0816 19.5947 18.8316 19.5159 19.6078 19.4634C19.3575 19.8441 19.095 20.2387 18.8316 20.6334ZM38.19 22.0406C37.4138 21.2906 36.3094 20.6203 34.8891 20.0156C32.0878 18.8194 28.3397 18.0431 24.316 17.8322C23.8294 17.8059 23.356 17.7928 22.9088 17.7797C25.9725 14.1234 28.9322 12.1772 30.6544 12.1116C31.0228 12.0984 31.3247 12.1641 31.5619 12.3216C32.3644 12.8475 32.5875 14.4647 32.1666 16.6744C32.0878 17.1084 32.3635 17.5294 32.7975 17.6081C33.2316 17.6869 33.6525 17.4112 33.7313 16.9772C34.4681 13.2028 33.4285 11.625 32.4291 10.9809C31.9031 10.6387 31.2853 10.4812 30.5878 10.5075C27.931 10.6125 24.2231 13.44 20.8303 17.7928C19.4888 17.8453 18.2006 17.9503 16.9903 18.135C16.8591 17.5172 16.7541 16.9247 16.6875 16.3462C16.3847 13.8478 16.7531 12.0591 17.6869 11.5856C17.8313 11.5069 18.0028 11.4675 18.1866 11.4544C19.0153 11.3887 20.1853 11.9541 21.4744 13.0191C21.8166 13.2956 22.3163 13.2553 22.605 12.9141C22.8816 12.5719 22.8413 12.0722 22.5 11.7834C20.8435 10.4025 19.3435 9.75844 18.0685 9.85031C17.6738 9.87656 17.3053 9.98156 16.9641 10.1531C16.096 10.5872 15.5175 11.4291 15.2147 12.6516C14.9513 13.6903 14.925 15.0056 15.1097 16.5309C15.1885 17.1356 15.2935 17.7675 15.4256 18.4116C14.4788 18.6084 13.5975 18.8587 12.8222 19.1353C9.39002 20.3719 8.58752 22.0153 8.53502 23.1722C8.48252 24.2766 9.04783 25.9209 12.0591 27.4725C12.4538 27.6694 12.9403 27.525 13.1372 27.1303C13.3341 26.7356 13.1897 26.2491 12.795 26.0522C11.0588 25.1578 10.0856 24.1453 10.1381 23.2641C10.2038 22.0275 12.2813 20.7131 15.8194 19.9762C16.1485 21.1594 16.5694 22.3959 17.0691 23.6325C15.7931 26.0259 14.8725 28.38 14.386 30.4706C14.0438 31.9697 13.9388 33.2719 14.0831 34.3369C14.2538 35.5866 14.7535 36.48 15.5691 37.0069C15.9769 37.2703 16.5422 37.4803 17.2791 37.4803C18.3441 37.4803 19.7644 37.0331 21.6581 35.6916C22.0135 35.4281 22.1053 34.9284 21.8419 34.5741C21.5785 34.2197 21.0788 34.1269 20.7244 34.3903C18.8569 35.7187 17.266 36.1922 16.4372 35.6662C15.5691 35.1009 15.3853 33.2991 15.9506 30.84C16.3191 29.2097 16.9894 27.4078 17.8969 25.5403C18.0938 25.9612 18.3047 26.3822 18.5147 26.8031C20.3428 30.3797 22.5647 33.4969 24.8006 35.5744C25.9181 36.6262 26.9972 37.3631 27.9966 37.7578C28.6013 38.0081 29.1666 38.1262 29.6935 38.1262C30.18 38.1262 30.6272 38.0212 31.0481 37.8103C31.8769 37.3894 32.4553 36.5869 32.7713 35.43C33.0347 34.4438 33.1003 33.2072 32.9419 31.7606C32.6522 28.92 31.5741 25.4616 29.9306 22.0162C29.7338 21.6216 29.2603 21.4509 28.8656 21.6478C28.471 21.8447 28.3003 22.3181 28.4972 22.7128C30.075 26.0006 31.0875 29.2622 31.3641 31.9181C31.6003 34.2591 31.2197 35.9156 30.3385 36.3628C29.4047 36.8362 27.7613 36.0862 25.9069 34.3772C23.8163 32.4178 21.6985 29.4591 19.95 26.04C19.5553 25.2637 19.1869 24.4753 18.8456 23.6991C19.2535 22.9622 19.7138 22.2131 20.1872 21.4762C20.6738 20.7262 21.1735 20.0166 21.66 19.3462C21.7913 19.3462 21.9235 19.3462 22.0547 19.3462C22.7381 19.3462 23.475 19.3594 24.2513 19.3987C28.0781 19.5956 31.6416 20.3325 34.2722 21.45C36.5869 22.4362 37.9416 23.6466 37.8891 24.6853C37.8366 25.5666 36.7716 26.4872 34.9435 27.1969C34.5356 27.3544 34.3256 27.8147 34.4831 28.2356C34.6013 28.5516 34.9041 28.7484 35.2331 28.7484C35.325 28.7484 35.43 28.7353 35.5228 28.6959C38.6925 27.4594 39.4285 25.8816 39.4941 24.7772C39.5306 23.8425 39.0966 22.9087 38.19 22.0406Z" fill="#F2F8F6"/>
<path d="M22.3435 24.21C22.3435 25.1831 23.1328 25.9594 24.0928 25.9594C25.0528 25.9594 25.8422 25.17 25.8422 24.21C25.8422 23.25 25.0528 22.4606 24.0928 22.4606C23.1319 22.4616 22.3435 23.25 22.3435 24.21Z" fill="#F1F8F3"/>
</g>
<defs>
<linearGradient id="paint0_linear_48_774" x1="24.0004" y1="1.90163" x2="24.0004" y2="47.9997" gradientUnits="userSpaceOnUse">
<stop stop-color="#FDFDFD"/>
<stop offset="1" stop-color="#CBCBCB"/>
</linearGradient>
<linearGradient id="paint1_linear_48_774" x1="23.9732" y1="3.82161" x2="23.9732" y2="45.9693" gradientUnits="userSpaceOnUse">
<stop stop-color="#B2E198"/>
<stop offset="1" stop-color="#04A171"/>
</linearGradient>
<clipPath id="clip0_48_774">
<rect width="48" height="48" fill="white"/>
</clipPath>
</defs>
</svg>
