<svg width="33" height="48" viewBox="0 0 33 48" fill="none" xmlns="http://www.w3.org/2000/svg">
<g clip-path="url(#clip0_48_827)">
<path d="M8.00323 48C12.4192 48 16.0032 44.416 16.0032 40V32H8.00323C3.58723 32 0.00323105 35.584 0.00323105 40C0.00323105 44.416 3.58723 48 8.00323 48Z" fill="#0ACF83"/>
<path d="M0.00323105 24C0.00323105 19.584 3.58723 16 8.00323 16H16.0032V32H8.00323C3.58723 32 0.00323105 28.416 0.00323105 24Z" fill="#A259FF"/>
<path d="M0.00323105 8C0.00323105 3.584 3.58723 0 8.00323 0H16.0032V16H8.00323C3.58723 16 0.00323105 12.416 0.00323105 8Z" fill="#F24E1E"/>
<path d="M16.0032 0H24.0032C28.4192 0 32.0032 3.584 32.0032 8C32.0032 12.416 28.4192 16 24.0032 16H16.0032V0Z" fill="#FF7262"/>
<path d="M32.0032 24C32.0032 28.416 28.4192 32 24.0032 32C19.5872 32 16.0032 28.416 16.0032 24C16.0032 19.584 19.5872 16 24.0032 16C28.4192 16 32.0032 19.584 32.0032 24Z" fill="#1ABCFE"/>
</g>
<defs>
<clipPath id="clip0_48_827">
<rect width="32.0064" height="48" fill="white"/>
</clipPath>
</defs>
</svg>
