<svg width="48" height="48" viewBox="0 0 48 48" fill="none" xmlns="http://www.w3.org/2000/svg">
<g clip-path="url(#clip0_48_857)">
<path fill-rule="evenodd" clip-rule="evenodd" d="M42.7564 32.3021C42.7564 33.3956 42.2611 34.4784 41.299 35.4887C40.3369 36.4989 38.9266 37.4169 37.1488 38.1901C35.371 38.9633 33.2605 39.5767 30.9377 39.9952C28.6149 40.4136 26.1253 40.629 23.6111 40.629C21.0969 40.629 18.6073 40.4136 16.2845 39.9952C13.9617 39.5767 11.8512 38.9633 10.0734 38.1901C8.29555 37.4169 6.88532 36.4989 5.92318 35.4887C4.96104 34.4784 4.46584 33.3956 4.46584 32.3021C4.46584 31.2086 4.96104 30.1258 5.92318 29.1156C6.88532 28.1053 8.29555 27.1874 10.0734 26.4141C11.8512 25.6409 13.9617 25.0276 16.2845 24.6091C18.6073 24.1906 21.0969 23.9753 23.6111 23.9753C26.1253 23.9753 28.6149 24.1906 30.9377 24.6091C33.2605 25.0276 35.371 25.6409 37.1488 26.4141C38.9266 27.1874 40.3369 28.1053 41.299 29.1156C42.2611 30.1258 42.7564 31.2086 42.7564 32.3021Z" fill="url(#paint0_radial_48_857)"/>
<path fill-rule="evenodd" clip-rule="evenodd" d="M10.235 11.8774C10.235 11.8774 13.2505 18.0958 20.3051 17.9204C35.0889 17.5495 37.6814 9.8375 38.0523 8.72481C38.4232 7.61212 38.9907 7.78066 39.1219 8.80901C43.9435 52.5749 5.66024 33.7966 4.30062 26.3424C11.904 24.117 10.0495 19.8517 10.0495 19.8517L10.235 11.8774Z" fill="url(#paint1_radial_48_857)" stroke="#2E3436" stroke-width="1.39874" stroke-miterlimit="10"/>
<path fill-rule="evenodd" clip-rule="evenodd" d="M15.8615 30.3389C22.931 31.7528 26.5311 30.4418 28.6381 28.8148C28.0818 28.0962 27.1314 27.3081 27.1314 27.3081C27.1314 27.3081 29.6001 27.9941 30.4694 29.1162C31.3363 30.2351 30.7913 30.9245 30.5644 32.3561C30.0594 31.0987 29.1168 30.6271 28.9891 30.1275C27.0943 32.7469 22.3733 32.6381 15.8615 30.3389Z" fill="url(#paint2_linear_48_857)"/>
<path opacity="0.185393" d="M38.134 11.2227C37.5444 12.195 36.6585 13.3556 35.3146 14.4682C32.5536 16.7541 27.9182 18.8347 20.3328 19.025C15.9012 19.1352 13.039 16.996 11.2847 15.0911L11.1536 19.779C11.2963 20.2184 11.5894 21.2377 11.088 22.6312C10.5485 24.1306 8.82779 25.6644 5.8755 26.8274C6.13811 27.375 6.39529 27.9222 7.18682 28.696C8.2652 29.7503 9.76439 30.8865 11.547 31.9087C15.1121 33.9532 19.7313 35.5733 24.0373 35.646C28.3433 35.7187 32.2798 34.3509 34.9868 30.4007C37.4822 26.7592 38.8499 20.5942 38.134 11.2227Z" stroke="url(#paint3_linear_48_857)" stroke-width="1.39874" stroke-miterlimit="10"/>
<path fill-rule="evenodd" clip-rule="evenodd" d="M17.9311 21.2426C17.9313 21.8028 17.821 22.3576 17.6068 22.8752C17.3925 23.3928 17.0783 23.8631 16.6822 24.2593C16.2861 24.6555 15.8159 24.9698 15.2983 25.1842C14.7808 25.3986 14.226 25.509 13.6658 25.509C13.1056 25.509 12.5509 25.3986 12.0333 25.1842C11.5157 24.9698 11.0455 24.6555 10.6494 24.2593C10.2533 23.8631 9.93916 23.3928 9.72487 22.8752C9.51058 22.3576 9.40035 21.8028 9.40049 21.2426C9.40035 20.6824 9.51058 20.1276 9.72487 19.61C9.93916 19.0924 10.2533 18.622 10.6494 18.2259C11.0455 17.8297 11.5157 17.5154 12.0333 17.301C12.5509 17.0866 13.1056 16.9762 13.6658 16.9762C14.226 16.9762 14.7808 17.0866 15.2983 17.301C15.8159 17.5154 16.2861 17.8297 16.6822 18.2259C17.0783 18.622 17.3925 19.0924 17.6068 19.61C17.821 20.1276 17.9313 20.6824 17.9311 21.2426Z" fill="url(#paint4_radial_48_857)" stroke="#888A85" stroke-width="1.39874" stroke-miterlimit="10"/>
<path fill-rule="evenodd" clip-rule="evenodd" d="M9.43437 22.8496C10.4271 24.2258 10.9911 25.8256 11.002 27.2972C11.013 28.7687 10.4702 29.9915 9.49293 30.6966C8.51569 31.4016 7.1841 31.531 5.79108 31.0565C4.39807 30.582 3.05775 29.5423 2.06498 28.1662C1.07221 26.79 0.508303 25.1902 0.497321 23.7186C0.486339 22.2471 1.02918 21.0243 2.00642 20.3193C2.98366 19.6142 4.31526 19.4848 5.70827 19.9593C7.10128 20.4338 8.4416 21.4735 9.43437 22.8496Z" fill="url(#paint5_radial_48_857)" stroke="black" stroke-width="1.39874" stroke-miterlimit="10"/>
<path fill-rule="evenodd" clip-rule="evenodd" d="M16.7169 21.8745C16.7169 22.1442 16.6639 22.4113 16.5607 22.6606C16.4575 22.9098 16.3063 23.1363 16.1156 23.327C15.9249 23.5178 15.6984 23.6691 15.4492 23.7724C15.2 23.8756 14.9329 23.9288 14.6632 23.9288C14.3934 23.9288 14.1263 23.8756 13.8771 23.7724C13.6279 23.6691 13.4015 23.5178 13.2108 23.327C13.0201 23.1363 12.8688 22.9098 12.7657 22.6606C12.6625 22.4113 12.6094 22.1442 12.6095 21.8745C12.6094 21.6047 12.6625 21.3376 12.7657 21.0884C12.8688 20.8392 13.0201 20.6127 13.2108 20.4219C13.4015 20.2312 13.6279 20.0798 13.8771 19.9766C14.1263 19.8733 14.3934 19.8202 14.6632 19.8202C14.9329 19.8202 15.2 19.8733 15.4492 19.9766C15.6984 20.0798 15.9249 20.2312 16.1156 20.4219C16.3063 20.6127 16.4575 20.8392 16.5607 21.0884C16.6639 21.3376 16.7169 21.6047 16.7169 21.8745Z" fill="#2E3436" stroke="black" stroke-width="1.39874" stroke-miterlimit="10"/>
<path opacity="0.280899" d="M2.37845 21.2565C1.70819 21.7585 1.35495 22.6079 1.38678 23.7605C1.4186 24.9131 1.87347 26.3243 2.80709 27.5708C3.7407 28.8173 4.96701 29.6507 6.06414 30.0054C7.16126 30.3601 8.07569 30.26 8.74594 29.758C9.4162 29.256 9.77072 28.366 9.7442 27.2081C9.71768 26.0502 9.27512 24.6678 8.34354 23.424C7.41196 22.1803 6.20988 21.3668 5.10615 21.0157C4.00241 20.6646 3.0487 20.7545 2.37845 21.2565Z" stroke="url(#paint6_linear_48_857)" stroke-width="1.39874" stroke-miterlimit="10"/>
<path fill-rule="evenodd" clip-rule="evenodd" d="M5.47149 23.1898C5.47155 23.4821 5.42362 23.7715 5.33045 24.0416C5.23728 24.3116 5.10069 24.557 4.92848 24.7637C4.75627 24.9704 4.55181 25.1344 4.32679 25.2463C4.10176 25.3581 3.86058 25.4157 3.61701 25.4157C3.37343 25.4157 3.13225 25.3581 2.90722 25.2463C2.6822 25.1344 2.47774 24.9704 2.30553 24.7637C2.13332 24.557 1.99673 24.3116 1.90356 24.0416C1.81039 23.7715 1.76246 23.4821 1.76252 23.1898C1.76246 22.8975 1.81039 22.6081 1.90356 22.338C1.99673 22.068 2.13332 21.8226 2.30553 21.6159C2.47774 21.4092 2.6822 21.2452 2.90722 21.1333C3.13225 21.0215 3.37343 20.9639 3.61701 20.9639C3.86058 20.9639 4.10176 21.0215 4.32679 21.1333C4.55181 21.2452 4.75627 21.4092 4.92848 21.6159C5.10069 21.8226 5.23728 22.068 5.33045 22.338C5.42362 22.6081 5.47155 22.8975 5.47149 23.1898Z" fill="white"/>
<path fill-rule="evenodd" clip-rule="evenodd" d="M15.2951 20.9266C15.2951 21.1133 15.2583 21.2982 15.1868 21.4707C15.1154 21.6432 15.0107 21.7999 14.8786 21.932C14.7466 22.064 14.5899 22.1687 14.4174 22.2402C14.2449 22.3116 14.06 22.3484 13.8733 22.3484C13.6866 22.3484 13.5017 22.3116 13.3292 22.2402C13.1567 22.1687 13 22.064 12.868 21.932C12.7359 21.7999 12.6312 21.6432 12.5598 21.4707C12.4883 21.2982 12.4515 21.1133 12.4515 20.9266C12.4515 20.7399 12.4883 20.555 12.5598 20.3825C12.6312 20.21 12.7359 20.0533 12.868 19.9213C13 19.7893 13.1567 19.6845 13.3292 19.6131C13.5017 19.5416 13.6866 19.5049 13.8733 19.5049C14.06 19.5049 14.2449 19.5416 14.4174 19.6131C14.5899 19.6845 14.7466 19.7893 14.8786 19.9213C15.0107 20.0533 15.1154 20.21 15.1868 20.3825C15.2583 20.555 15.2951 20.7399 15.2951 20.9266Z" fill="white"/>
<path fill-rule="evenodd" clip-rule="evenodd" d="M27.4817 21.7062C27.4819 22.3639 27.3525 23.0151 27.1009 23.6227C26.8494 24.2304 26.4806 24.7825 26.0156 25.2476C25.5506 25.7127 24.9986 26.0816 24.391 26.3333C23.7835 26.585 23.1323 26.7146 22.4746 26.7146C21.817 26.7146 21.1658 26.585 20.5582 26.3333C19.9506 26.0816 19.3986 25.7127 18.9336 25.2476C18.4686 24.7825 18.0998 24.2304 17.8483 23.6227C17.5967 23.0151 17.4673 22.3639 17.4675 21.7062C17.4673 21.0486 17.5967 20.3973 17.8483 19.7897C18.0998 19.182 18.4686 18.6299 18.9336 18.1648C19.3986 17.6997 19.9506 17.3308 20.5582 17.0791C21.1658 16.8274 21.817 16.6978 22.4746 16.6978C23.1323 16.6978 23.7835 16.8274 24.391 17.0791C24.9986 17.3308 25.5506 17.6997 26.0156 18.1648C26.4806 18.6299 26.8494 19.182 27.1009 19.7897C27.3525 20.3973 27.4819 21.0486 27.4817 21.7062Z" fill="url(#paint7_radial_48_857)" stroke="#888A85" stroke-width="1.39874" stroke-miterlimit="10"/>
<path fill-rule="evenodd" clip-rule="evenodd" d="M26.0563 22.448C26.0564 22.7647 25.9941 23.0782 25.873 23.3708C25.7519 23.6634 25.5743 23.9292 25.3504 24.1532C25.1265 24.3771 24.8607 24.5548 24.5682 24.676C24.2757 24.7972 23.9621 24.8595 23.6455 24.8595C23.3288 24.8595 23.0152 24.7972 22.7227 24.676C22.4302 24.5548 22.1644 24.3771 21.9405 24.1532C21.7166 23.9292 21.539 23.6634 21.4179 23.3708C21.2968 23.0782 21.2345 22.7647 21.2346 22.448C21.2345 22.1313 21.2968 21.8178 21.4179 21.5252C21.539 21.2326 21.7166 20.9668 21.9405 20.7428C22.1644 20.5189 22.4302 20.3412 22.7227 20.22C23.0152 20.0988 23.3288 20.0365 23.6455 20.0365C23.9621 20.0365 24.2757 20.0988 24.5682 20.22C24.8607 20.3412 25.1265 20.5189 25.3504 20.7428C25.5743 20.9668 25.7519 21.2326 25.873 21.5252C25.9941 21.8178 26.0564 22.1313 26.0563 22.448Z" fill="#2E3436" stroke="black" stroke-width="1.39874" stroke-miterlimit="10"/>
<path fill-rule="evenodd" clip-rule="evenodd" d="M24.3872 21.3353C24.3872 21.5545 24.3441 21.7715 24.2602 21.974C24.1763 22.1765 24.0534 22.3605 23.8984 22.5155C23.7434 22.6705 23.5594 22.7934 23.3569 22.8773C23.1544 22.9612 22.9374 23.0043 22.7182 23.0043C22.499 23.0043 22.282 22.9612 22.0795 22.8773C21.877 22.7934 21.693 22.6705 21.538 22.5155C21.383 22.3605 21.2601 22.1765 21.1762 21.974C21.0923 21.7715 21.0492 21.5545 21.0492 21.3353C21.0492 21.1161 21.0923 20.8991 21.1762 20.6966C21.2601 20.4941 21.383 20.3101 21.538 20.1551C21.693 20.0001 21.877 19.8772 22.0795 19.7933C22.282 19.7094 22.499 19.6663 22.7182 19.6663C22.9374 19.6663 23.1544 19.7094 23.3569 19.7933C23.5594 19.8772 23.7434 20.0001 23.8984 20.1551C24.0534 20.3101 24.1763 20.4941 24.2602 20.6966C24.3441 20.8991 24.3872 21.1161 24.3872 21.3353Z" fill="white"/>
<path d="M37.7334 36.6598L38.7053 34.7244C35.0899 32.0794 28.4252 30.1549 28.4252 30.1549C27.27 29.6167 26.9054 30.6546 27.7054 31.3292C27.7054 31.3292 33.405 35.4152 37.7334 36.6598Z" fill="url(#paint8_linear_48_857)" stroke="#673907" stroke-width="1.39874" stroke-linecap="round"/>
<path d="M42.3684 38.4438L42.8887 37.292L38.8524 34.7062L38.5306 34.6788L38.3915 34.2333C37.8051 34.6005 36.9531 35.9645 37.179 36.7314L37.6149 36.5665L37.8511 36.7947L42.3684 38.4438Z" fill="url(#paint9_linear_48_857)" stroke="#888A85" stroke-width="1.39874" stroke-linecap="round"/>
<path d="M39.7527 36.2593L42.4325 37.4099" stroke="white" stroke-width="1.39874" stroke-linecap="round" stroke-linejoin="round"/>
<path d="M48.2345 43.3347C46.9762 39.0632 46.5299 35.6717 43.2414 35.9735C40.5913 36.2167 40.4058 40.0138 43.1443 41.0616C45.7822 42.0709 48.2345 43.3347 48.2345 43.3347Z" fill="url(#paint10_radial_48_857)"/>
<path opacity="0.527778" d="M43.4384 36.3195C43.5774 36.2785 43.7231 36.2653 43.8672 36.2806C44.0113 36.296 44.1509 36.3395 44.2782 36.4089C44.4054 36.4782 44.5178 36.5719 44.6088 36.6846C44.6998 36.7973 44.7677 36.9269 44.8087 37.0659C44.8496 37.2049 44.8628 37.3506 44.8474 37.4947C44.8321 37.6387 44.7885 37.7784 44.7191 37.9056C44.6498 38.0328 44.556 38.1451 44.4433 38.2361C44.3305 38.3271 44.2009 38.395 44.0619 38.4359C43.9229 38.4769 43.7773 38.4901 43.6332 38.4748C43.4891 38.4595 43.3494 38.4159 43.2222 38.3466C43.0949 38.2773 42.9826 38.1836 42.8916 38.0708C42.8005 37.9581 42.7326 37.8285 42.6917 37.6895C42.6507 37.5506 42.6376 37.4049 42.6529 37.2608C42.6683 37.1167 42.7119 36.9771 42.7813 36.8498C42.8506 36.7226 42.9443 36.6103 43.0571 36.5193C43.1699 36.4283 43.2994 36.3604 43.4384 36.3195Z" fill="white"/>
<path d="M38.6283 34.7497C38.7221 34.722 38.8204 34.7131 38.9176 34.7234C39.0148 34.7338 39.109 34.7632 39.1949 34.81C39.2808 34.8567 39.3566 34.9199 39.418 34.996C39.4794 35.0721 39.5252 35.1595 39.5529 35.2533C39.5805 35.3471 39.5894 35.4454 39.579 35.5426C39.5686 35.6398 39.5392 35.734 39.4924 35.8199C39.4456 35.9057 39.3824 35.9815 39.3063 36.0429C39.2302 36.1043 39.1428 36.1501 39.049 36.1777C38.9552 36.2054 38.8569 36.2143 38.7597 36.2039C38.6625 36.1936 38.5682 36.1642 38.4824 36.1174C38.3965 36.0707 38.3207 36.0075 38.2593 35.9314C38.1979 35.8553 38.152 35.7679 38.1244 35.6741C38.0968 35.5803 38.0879 35.482 38.0983 35.3848C38.1086 35.2876 38.1381 35.1934 38.1848 35.1075C38.2316 35.0217 38.2949 34.9459 38.371 34.8845C38.4471 34.8231 38.5345 34.7773 38.6283 34.7497Z" fill="white"/>
<path opacity="0.427778" d="M46.6546 40.7787C46.6546 40.7787 46.2448 39.2453 45.3401 38.4473C45.0201 38.1649 45.4233 37.749 45.7254 38.1143C46.3777 38.9033 46.6546 40.7787 46.6546 40.7787Z" fill="url(#paint11_linear_48_857)"/>
<path fill-rule="evenodd" clip-rule="evenodd" d="M23.4832 32.0913C25.054 32.2414 26.4726 31.8058 27.0625 31.594C27.1655 31.0114 27.6253 29.8932 29.2089 29.8196L28.6526 28.846C28.6526 28.846 26.5894 30.26 24.3872 30.6773L23.4832 32.0913Z" fill="url(#paint12_linear_48_857)"/>
</g>
<defs>
<radialGradient id="paint0_radial_48_857" cx="0" cy="0" r="1" gradientUnits="userSpaceOnUse" gradientTransform="translate(23.6111 32.3021) scale(19.1453 8.32689)">
<stop/>
<stop offset="1" stop-opacity="0"/>
</radialGradient>
<radialGradient id="paint1_radial_48_857" cx="0" cy="0" r="1" gradientUnits="userSpaceOnUse" gradientTransform="translate(16.7216 22.1919) scale(35.7608 26.1573)">
<stop stop-color="#857C63"/>
<stop offset="1" stop-color="#221F19"/>
</radialGradient>
<linearGradient id="paint2_linear_48_857" x1="29.264" y1="28.6219" x2="17.5808" y2="30.94" gradientUnits="userSpaceOnUse">
<stop/>
<stop offset="1" stop-opacity="0"/>
</linearGradient>
<linearGradient id="paint3_linear_48_857" x1="15.0547" y1="18.8461" x2="40.8151" y2="48.0885" gradientUnits="userSpaceOnUse">
<stop stop-color="white"/>
<stop offset="1" stop-color="white" stop-opacity="0"/>
</linearGradient>
<radialGradient id="paint4_radial_48_857" cx="0" cy="0" r="1" gradientUnits="userSpaceOnUse" gradientTransform="translate(13.6658 18.2411) scale(6.2129 6.2129)">
<stop stop-color="white"/>
<stop offset="1" stop-color="#B9B9B0"/>
</radialGradient>
<radialGradient id="paint5_radial_48_857" cx="0" cy="0" r="1" gradientUnits="userSpaceOnUse" gradientTransform="translate(4.04494 23.2787) rotate(-30) scale(4.66707 5.44724)">
<stop stop-color="#5B676B"/>
<stop offset="1" stop-color="#141718"/>
</radialGradient>
<linearGradient id="paint6_linear_48_857" x1="3.3145" y1="22.1363" x2="8.20702" y2="29.2294" gradientUnits="userSpaceOnUse">
<stop stop-color="white"/>
<stop offset="1" stop-color="white" stop-opacity="0"/>
</linearGradient>
<radialGradient id="paint7_radial_48_857" cx="0" cy="0" r="1" gradientUnits="userSpaceOnUse" gradientTransform="translate(22.4746 18.1827) scale(7.29341 7.2934)">
<stop stop-color="white"/>
<stop offset="1" stop-color="#B9B9B0"/>
</radialGradient>
<linearGradient id="paint8_linear_48_857" x1="35.3965" y1="32.4248" x2="33.2173" y2="37.1844" gradientUnits="userSpaceOnUse">
<stop stop-color="#6E3D09"/>
<stop offset="0.242424" stop-color="#EA8113"/>
<stop offset="0.621212" stop-color="#5C3307"/>
<stop offset="1" stop-color="#E07C12"/>
</linearGradient>
<linearGradient id="paint9_linear_48_857" x1="40.0666" y1="37.594" x2="41.025" y2="35.6606" gradientUnits="userSpaceOnUse">
<stop stop-color="#BDBDBD"/>
<stop offset="0.333333" stop-color="#E2E2E2"/>
<stop offset="0.666667" stop-color="#A3A3A3"/>
<stop offset="1" stop-color="#DDDDDD"/>
</linearGradient>
<radialGradient id="paint10_radial_48_857" cx="0" cy="0" r="1" gradientUnits="userSpaceOnUse" gradientTransform="translate(42.4565 38.7174) rotate(-106.415) scale(5.08216 4.95273)">
<stop stop-color="#696969"/>
<stop offset="1"/>
</radialGradient>
<linearGradient id="paint11_linear_48_857" x1="45.4651" y1="37.7025" x2="46.6925" y2="39.9773" gradientUnits="userSpaceOnUse">
<stop stop-color="white"/>
<stop offset="1" stop-color="white" stop-opacity="0"/>
</linearGradient>
<linearGradient id="paint12_linear_48_857" x1="26.7981" y1="30.8395" x2="24.874" y2="31.3032" gradientUnits="userSpaceOnUse">
<stop/>
<stop offset="1" stop-opacity="0"/>
</linearGradient>
<clipPath id="clip0_48_857">
<rect width="48" height="48" fill="white"/>
</clipPath>
</defs>
</svg>
