<svg width="48" height="48" viewBox="0 0 48 48" fill="none" xmlns="http://www.w3.org/2000/svg">
<g clip-path="url(#clip0_48_795)">
<path d="M47.0934 21.8634L26.1367 0.907434C24.9303 -0.299749 22.9729 -0.299749 21.7649 0.907434L17.4136 5.25956L22.9335 10.7797C24.2166 10.3465 25.6878 10.6372 26.71 11.6597C27.7385 12.6886 28.0265 14.1724 27.5823 15.4599L32.9029 20.7799C34.1904 20.3361 35.6749 20.623 36.7033 21.6528C38.1398 23.0889 38.1398 25.4169 36.7033 26.8542C35.2658 28.2915 32.9382 28.2915 31.5 26.8542C30.4196 25.7727 30.1523 24.1851 30.7002 22.8538L25.7377 17.8918V30.9492C26.0877 31.1227 26.4182 31.3537 26.71 31.6446C28.1465 33.081 28.1465 35.4087 26.71 36.8473C25.2735 38.2831 22.9443 38.2831 21.5088 36.8473C20.0723 35.4087 20.0723 33.081 21.5088 31.6446C21.8639 31.29 22.275 31.0217 22.7137 30.8421V17.6639C22.275 17.4843 21.8649 17.2182 21.5088 16.8612C20.4209 15.7735 20.1591 14.1765 20.7172 12.8402L15.2752 7.39738L0.905056 21.7663C-0.301889 22.9744 -0.301889 24.9319 0.905056 26.139L21.8629 47.095C23.0694 48.3019 25.0262 48.3019 26.2346 47.095L47.0934 26.2361C48.3008 25.0288 48.3008 23.0703 47.0934 21.8634Z" fill="#F03C2E"/>
</g>
<defs>
<clipPath id="clip0_48_795">
<rect width="48" height="48" fill="white"/>
</clipPath>
</defs>
</svg>
