<svg width="48" height="48" viewBox="0 0 48 48" fill="none" xmlns="http://www.w3.org/2000/svg">
<g clip-path="url(#clip0_48_748)">
<path d="M3.05176e-05 14.6362V30.6675H13.3482V33.3637H24V30.6675H48V14.6362H3.05176e-05Z" fill="#CB3837"/>
<path d="M7.96973 17.3325H2.68317V20.0156V27.9844H7.96973V20.0156H10.6519V27.9844H13.3482V20.0156V17.3325H7.96973Z" fill="white"/>
<path d="M16.0303 17.3325V27.4322V27.9844V30.6675H21.4088V27.9844H26.6953V17.3325H16.0303ZM24 25.3022H21.4097V20.0156H24V25.3022Z" fill="white"/>
<path d="M34.6519 17.3325H29.3785V20.0156V27.9844H34.6519V20.0156H37.3482V27.9844H40.0304V20.0156H42.7135V27.9844H45.4097V20.0156V17.5162V17.3325H34.6519Z" fill="white"/>
</g>
<defs>
<clipPath id="clip0_48_748">
<rect width="48" height="48" fill="white"/>
</clipPath>
</defs>
</svg>
