<svg width="48" height="48" viewBox="0 0 48 48" fill="none" xmlns="http://www.w3.org/2000/svg">
<g clip-path="url(#clip0_48_720)">
<path d="M1.371 16.8911C1.371 16.8911 0.235871 16.0695 1.59975 14.9737L4.77525 12.126C4.77525 12.126 5.685 11.1664 6.64612 12.003L35.9617 34.251V44.9197C35.9617 44.9197 35.9471 46.5952 33.8029 46.4107L1.371 16.8911Z" fill="#2489CA"/>
<path d="M8.92838 23.7671L1.371 30.6533C1.371 30.6533 0.594751 31.2319 1.371 32.2676L4.8795 35.4653C4.8795 35.4653 5.71275 36.3634 6.945 35.3423L14.9546 29.253L8.92838 23.7671Z" fill="#1070B3"/>
<path d="M22.194 23.8241L36.0514 13.2172L35.9617 2.60587C35.9617 2.60587 35.37 0.289873 33.3956 1.49625L14.9546 18.3191L22.194 23.8241Z" fill="#0877B9"/>
<path d="M33.8025 46.4239C34.6069 47.25 35.5826 46.9789 35.5826 46.9789L46.3815 41.6456C47.7641 40.7006 47.5706 39.5288 47.5706 39.5288V7.67437C47.5706 6.27375 46.1411 5.79037 46.1411 5.79037L36.7808 1.2675C34.7359 0.000374079 33.3956 1.49625 33.3956 1.49625C33.3956 1.49625 35.118 0.252374 35.9618 2.60625V44.7251C35.9618 45.015 35.9003 45.2989 35.7773 45.5554C35.5313 46.0549 34.995 46.5191 33.7133 46.3245L33.8025 46.4239Z" fill="#3C99D4"/>
</g>
<defs>
<clipPath id="clip0_48_720">
<rect width="48" height="48" fill="white"/>
</clipPath>
</defs>
</svg>
